<?xml version="1.0" encoding="utf-8"?>
<!-- Generator: Adobe Illustrator 23.0.3, SVG Export Plug-In . SVG Version: 6.00 Build 0)  -->
<svg version="1.1" id="Layer_1" xmlns="http://www.w3.org/2000/svg" xmlns:xlink="http://www.w3.org/1999/xlink" x="0px" y="0px"
	 viewBox="0 0 700 603" style="enable-background:new 0 0 700 603;" xml:space="preserve">
<style type="text/css">
	.st0{fill:#F4F4F4;}
</style>
<path class="st0" d="M9.7,57.9c0,12.9,5.1,25.3,14.3,34.4c9.1,9.1,21.5,14.2,34.4,14.2h584c17.4,0,33.5-9.3,42.2-24.3
	c8.7-15.1,8.7-33.6,0-48.7c-8.7-15.1-24.8-24.3-42.2-24.3h-584c-12.9,0-25.3,5.1-34.4,14.2C14.8,32.6,9.7,45,9.7,57.9L9.7,57.9z"/>
<path class="st0" d="M642.3,252.5h-584c-17.4,0-33.5,9.3-42.2,24.3c-8.7,15.1-8.7,33.6,0,48.7c8.7,15.1,24.8,24.3,42.2,24.3h584
	c17.4,0,33.5-9.3,42.2-24.3c8.7-15.1,8.7-33.6,0-48.7C675.8,261.8,659.7,252.5,642.3,252.5z"/>
<path class="st0" d="M642.3,495.9h-584c-17.4,0-33.5,9.3-42.2,24.3c-8.7,15.1-8.7,33.6,0,48.7c8.7,15.1,24.8,24.3,42.2,24.3h584
	c17.4,0,33.5-9.3,42.2-24.3c8.7-15.1,8.7-33.6,0-48.7C675.8,505.1,659.7,495.9,642.3,495.9z"/>
</svg>
